#tb 0: 1/25
#media_type 0: video
#codec_id 0: rawvideo
#dimensions 0: 352x288
#sar 0: 0/1
0,          0,          0,        1,   304128, 0x00b8fb44
0,          1,          1,        1,   304128, 0xc574ccc6
0,          2,          2,        1,   304128, 0x021d65ca
0,          3,          3,        1,   304128, 0x8cbe6ebb
0,          4,          4,        1,   304128, 0x31222874
0,          5,          5,        1,   304128, 0xd220478a
0,          6,          6,        1,   304128, 0x47522814
0,          7,          7,        1,   304128, 0xe4565725
0,          8,          8,        1,   304128, 0xd8e45b8c
0,          9,          9,        1,   304128, 0x813dc8a3
0,         10,         10,        1,   304128, 0x8b0a4d05
0,         11,         11,        1,   304128, 0xe50440ba
0,         12,         12,        1,   304128, 0x19f50b37
0,         13,         13,        1,   304128, 0xdcd466fe
0,         14,         14,        1,   304128, 0xf70afda3
0,         15,         15,        1,   304128, 0x8764b754
0,         16,         16,        1,   304128, 0xc61895d4
0,         17,         17,        1,   304128, 0x038cb959
0,         18,         18,        1,   304128, 0xf1c35245
0,         19,         19,        1,   304128, 0x48bb6e38
0,         20,         20,        1,   304128, 0x39e1eb8d
0,         21,         21,        1,   304128, 0x81bb240b
0,         22,         22,        1,   304128, 0xde1c6f71
0,         23,         23,        1,   304128, 0x327a93e4
0,         24,         24,        1,   304128, 0xb72f03dd
0,         25,         25,        1,   304128, 0xc72eb634
0,         26,         26,        1,   304128, 0x544744bc
0,         27,         27,        1,   304128, 0xb55e5edb
0,         28,         28,        1,   304128, 0x0e6c775c
0,         29,         29,        1,   304128, 0x5bc38194
0,         30,         30,        1,   304128, 0xf9e34071
0,         31,         31,        1,   304128, 0x1aa441c6
0,         32,         32,        1,   304128, 0x7d773a63
0,         33,         33,        1,   304128, 0x48146a41
0,         34,         34,        1,   304128, 0x3dd608aa
0,         35,         35,        1,   304128, 0xbd7026c4
0,         36,         36,        1,   304128, 0x6b8f03ee
0,         37,         37,        1,   304128, 0xecdb0bf8
0,         38,         38,        1,   304128, 0x7dcaf33c
0,         39,         39,        1,   304128, 0x5873365e
0,         40,         40,        1,   304128, 0x19e49f52
0,         41,         41,        1,   304128, 0x4a0725e7
0,         42,         42,        1,   304128, 0x5db71a20
0,         43,         43,        1,   304128, 0x81585df3
0,         44,         44,        1,   304128, 0x85250aa9
0,         45,         45,        1,   304128, 0xbe234bb0
0,         46,         46,        1,   304128, 0x595dd559
0,         47,         47,        1,   304128, 0x961e838a
0,         48,         48,        1,   304128, 0x9c462140
0,         49,         49,        1,   304128, 0x3f223475
